<svg xmlns="http://www.w3.org/2000/svg" xmlns:xlink="http://www.w3.org/1999/xlink" width="1536" zoomAndPan="magnify" viewBox="0 0 1152 1151.999944" height="1536" preserveAspectRatio="xMidYMid meet" version="1.0"><defs><clipPath id="c0ebfdb9bb"><path d="M 345.601562 345.601562 L 806.101562 345.601562 L 806.101562 806.101562 L 345.601562 806.101562 Z M 345.601562 345.601562 " clip-rule="nonzero"/></clipPath></defs><rect x="-115.2" width="1382.4" fill="#ffffff" y="-115.199994" height="1382.399933" fill-opacity="1"/><rect x="-115.2" width="1382.4" fill="#ffffff" y="-115.199994" height="1382.399933" fill-opacity="1"/><g clip-path="url(#c0ebfdb9bb)"><path fill="#ff3131" d="M 575.996094 345.601562 C 448.75 345.601562 345.601562 448.75 345.601562 575.996094 C 345.601562 703.242188 448.75 806.394531 575.996094 806.394531 C 703.242188 806.394531 806.394531 703.242188 806.394531 575.996094 C 806.394531 448.75 703.242188 345.601562 575.996094 345.601562 Z M 709.96875 582.507812 C 703.402344 589.074219 693.710938 590.601562 685.683594 587.101562 L 685.683594 674.488281 C 685.683594 692.664062 670.949219 707.394531 652.777344 707.394531 L 499.21875 707.394531 C 481.042969 707.394531 466.3125 692.660156 466.3125 674.488281 L 466.3125 587.101562 C 458.285156 590.601562 448.589844 589.074219 442.023438 582.507812 C 433.457031 573.941406 433.457031 560.050781 442.023438 551.484375 L 560.484375 433.023438 C 569.050781 424.457031 582.941406 424.457031 591.507812 433.023438 L 709.96875 551.484375 C 718.535156 560.050781 718.535156 573.941406 709.96875 582.507812 Z M 709.96875 582.507812 " fill-opacity="1" fill-rule="nonzero"/></g><path fill="#ff3131" d="M 603.417969 586.738281 L 548.574219 586.738281 C 542.515625 586.738281 537.605469 591.652344 537.605469 597.710938 L 537.605469 663.519531 C 537.605469 669.578125 542.515625 674.488281 548.574219 674.488281 L 603.417969 674.488281 C 609.476562 674.488281 614.386719 669.578125 614.386719 663.519531 L 614.386719 597.710938 C 614.386719 591.652344 609.476562 586.738281 603.417969 586.738281 Z M 603.417969 586.738281 " fill-opacity="1" fill-rule="nonzero"/></svg>