<?xml version="1.0" encoding="UTF-8"?>
<!DOCTYPE svg PUBLIC "-//W3C//DTD SVG 1.1//EN" "http://www.w3.org/Graphics/SVG/1.1/DTD/svg11.dtd">
<svg xmlns="http://www.w3.org/2000/svg" version="1.1" width="2160px" height="1620px" style="shape-rendering:geometricPrecision; text-rendering:geometricPrecision; image-rendering:optimizeQuality; fill-rule:evenodd; clip-rule:evenodd" xmlns:xlink="http://www.w3.org/1999/xlink">
<g><path style="opacity:0.991" fill="#ed5d20" d="M 940.5,702.5 C 938.909,701.781 937.409,700.781 936,699.5C 933.753,700.98 931.253,701.647 928.5,701.5C 924.173,700.749 919.84,700.583 915.5,701C 916.416,701.278 917.082,701.778 917.5,702.5C 910.137,702.414 902.804,702.247 895.5,702C 933.587,721.417 967.753,746.25 998,776.5C 1007.83,789.476 1016.16,803.476 1023,818.5C 1025.45,826.345 1027.12,834.345 1028,842.5C 1035.94,848.037 1044.78,851.204 1054.5,852C 1069.94,854.095 1085.27,853.428 1100.5,850C 1125.37,842.932 1150.04,835.265 1174.5,827C 1206.79,822.735 1237.45,828.069 1266.5,843C 1289.27,856.44 1310.94,871.44 1331.5,888C 1354.79,899.644 1378.79,909.644 1403.5,918C 1406.79,918.882 1410.12,919.548 1413.5,920C 1422.17,920.333 1430.83,920.667 1439.5,921C 1420.85,926.174 1401.85,927.84 1382.5,926C 1372.77,925.076 1363.11,923.743 1353.5,922C 1340.4,917.618 1327.4,912.952 1314.5,908C 1303.17,900.333 1291.83,892.667 1280.5,885C 1264.34,877.057 1247.34,871.724 1229.5,869C 1207.52,864.919 1185.52,864.586 1163.5,868C 1148.83,874 1134.17,880 1119.5,886C 1111.85,890.827 1103.85,895.161 1095.5,899C 1093.91,900.046 1092.41,901.213 1091,902.5C 1090.31,903.332 1090.48,903.998 1091.5,904.5C 1128.57,893.157 1166.57,888.324 1205.5,890C 1222.01,891.506 1236.18,898.006 1248,909.5C 1248.75,910.635 1248.58,911.635 1247.5,912.5C 1240.9,910.199 1234.57,907.365 1228.5,904C 1212.88,901.209 1197.22,900.876 1181.5,903C 1169.81,905.56 1158.14,908.226 1146.5,911C 1135.52,915.822 1125.52,922.155 1116.5,930C 1104.89,936.146 1092.89,941.146 1080.5,945C 1102.55,942.66 1124.55,939.66 1146.5,936C 1160.52,935.499 1174.52,934.665 1188.5,933.5C 1198.57,934.074 1208.57,935.24 1218.5,937C 1240.46,945.145 1260.8,956.145 1279.5,970C 1307.22,995.696 1338.22,1016.7 1372.5,1033C 1378.71,1034.72 1385.04,1035.72 1391.5,1036C 1403.54,1036.13 1415.54,1036.8 1427.5,1038C 1426.42,1040.04 1424.75,1041.38 1422.5,1042C 1398.24,1045.51 1373.9,1046.18 1349.5,1044C 1339.78,1040.2 1330.11,1036.2 1320.5,1032C 1306.63,1024.12 1293.29,1015.45 1280.5,1006C 1273.61,1003.55 1266.94,1000.55 1260.5,997C 1247.27,991.067 1233.44,987.234 1219,985.5C 1213.84,986.308 1208.68,986.975 1203.5,987.5C 1198.73,986.683 1193.73,987.016 1188.5,988.5C 1159.2,995.434 1130.87,1005.27 1103.5,1018C 1089.35,1022.79 1075.01,1026.79 1060.5,1030C 1056.29,1031.62 1052.29,1033.62 1048.5,1036C 1032.71,1036.33 1017.04,1037.83 1001.5,1040.5C 966.713,1040.51 933.38,1033.68 901.5,1020C 855.301,990.391 807.634,963.058 758.5,938C 748.617,930.472 737.95,924.139 726.5,919C 720.833,915.333 715.167,911.667 709.5,908C 674.885,892.358 640.885,875.691 607.5,858C 598.67,850.17 590.17,842.003 582,833.5C 579.713,830.22 577.88,826.72 576.5,823C 576.934,820.684 577.934,818.684 579.5,817C 589.621,814.377 599.621,811.377 609.5,808C 632.437,803.804 655.437,803.137 678.5,806C 691.806,807.548 704.472,811.215 716.5,817C 745.102,831.631 772.102,848.631 797.5,868C 813.354,876.506 830.02,882.84 847.5,887C 863.563,887.91 879.563,888.743 895.5,889.5C 890.56,891.485 885.56,893.319 880.5,895C 847.305,896.951 816.305,889.618 787.5,873C 780.928,869.098 774.928,864.431 769.5,859C 748.07,843.855 724.236,835.021 698,832.5C 685.517,833.264 673.017,833.764 660.5,834C 653.884,833.766 653.217,835.1 658.5,838C 668.693,841.429 678.026,846.429 686.5,853C 704.958,862.062 723.291,871.396 741.5,881C 752.614,888.892 764.614,895.225 777.5,900C 799.233,909.133 821.566,916.466 844.5,922C 879.437,929.695 913.77,927.695 947.5,916C 953.112,913.861 958.446,911.194 963.5,908C 975.952,895.536 986.119,881.37 994,865.5C 1000.34,849.645 1002.01,833.311 999,816.5C 992.324,796.799 981.157,779.966 965.5,766C 955.833,758.333 946.167,750.667 936.5,743C 879.004,705.762 816.671,679.762 749.5,665C 745.181,664.24 740.848,663.573 736.5,663C 720.833,662.667 705.167,662.333 689.5,662C 707.783,659.589 726.117,657.756 744.5,656.5C 769.33,656.645 793.663,660.145 817.5,667C 826.681,670.727 836.015,674.061 845.5,677C 864.176,682.341 882.843,687.674 901.5,693C 917.512,693.867 933.512,694.867 949.5,696C 949.833,696.333 950.167,696.667 950.5,697C 947.063,698.805 943.73,700.639 940.5,702.5 Z"/></g>
<g><path style="opacity:0.32" fill="#ef5c20" d="M 940.5,702.5 C 932.833,702.5 925.167,702.5 917.5,702.5C 917.082,701.778 916.416,701.278 915.5,701C 919.84,700.583 924.173,700.749 928.5,701.5C 931.253,701.647 933.753,700.98 936,699.5C 937.409,700.781 938.909,701.781 940.5,702.5 Z"/></g>
<g><path style="opacity:0.986" fill="#ed5d1f" d="M 635.5,709.5 C 643.517,709.668 651.517,710.168 659.5,711C 694.637,717.451 729.303,725.784 763.5,736C 769.727,739.781 776.393,742.447 783.5,744C 805.678,755.589 828.011,766.922 850.5,778C 862.156,786.496 874.156,794.496 886.5,802C 888.625,803.737 889.458,805.904 889,808.5C 884.052,811.464 878.885,811.964 873.5,810C 859.983,805.211 846.65,800.211 833.5,795C 827.051,795.307 821.051,793.973 815.5,791C 767.454,782.457 719.787,772.124 672.5,760C 652.094,756.655 631.761,752.988 611.5,749C 620.977,739.188 627.477,727.688 631,714.5C 632.025,712.313 633.525,710.646 635.5,709.5 Z M 662.5,722.5 C 677.065,723.808 691.065,727.308 704.5,733C 705.795,736.842 705.628,740.675 704,744.5C 701.958,746.604 699.458,747.771 696.5,748C 679.709,749.488 663.376,747.488 647.5,742C 643.759,734.455 645.759,728.788 653.5,725C 656.628,724.159 659.628,723.325 662.5,722.5 Z"/></g>
<g><path style="opacity:0.327" fill="#f05e1e" d="M 1203.5,987.5 C 1198.69,988.487 1193.69,988.821 1188.5,988.5C 1193.73,987.016 1198.73,986.683 1203.5,987.5 Z"/></g>
</svg>
