<svg xmlns="http://www.w3.org/2000/svg" xmlns:xlink="http://www.w3.org/1999/xlink" width="1536" zoomAndPan="magnify" viewBox="0 0 1152 1151.999944" height="1536" preserveAspectRatio="xMidYMid meet" version="1.0"><defs><clipPath id="1e3fb32909"><path d="M 374 346 L 777 346 L 777 806.101562 L 374 806.101562 Z M 374 346 " clip-rule="nonzero"/></clipPath></defs><rect x="-115.2" width="1382.4" fill="#ffffff" y="-115.199994" height="1382.399933" fill-opacity="1"/><rect x="-115.2" width="1382.4" fill="#ffffff" y="-115.199994" height="1382.399933" fill-opacity="1"/><g clip-path="url(#1e3fb32909)"><path fill="#ff3131" d="M 772.140625 404.953125 C 769.148438 401.984375 765.628906 400.488281 761.5625 400.488281 C 759.535156 400.488281 755.265625 402.152344 748.773438 405.433594 C 742.273438 408.722656 735.375 412.382812 728.113281 416.46875 C 720.832031 420.53125 712.21875 424.207031 702.277344 427.5 C 692.34375 430.78125 683.148438 432.441406 674.683594 432.441406 C 666.863281 432.441406 659.964844 430.957031 654.023438 427.976562 C 634.308594 418.742188 617.160156 411.851562 602.601562 407.308594 C 588.042969 402.769531 572.386719 400.488281 555.628906 400.488281 C 526.691406 400.488281 493.726562 409.898438 456.773438 428.683594 C 449.152344 432.488281 443.683594 435.433594 440.148438 437.589844 L 436.636719 411.84375 C 444.570312 404.953125 449.691406 394.917969 449.691406 383.585938 C 449.691406 362.828125 432.867188 346.007812 412.109375 346.007812 C 391.351562 346.007812 374.53125 362.828125 374.53125 383.585938 C 374.53125 397.128906 381.765625 408.898438 392.503906 415.515625 L 443.269531 787.777344 C 444.78125 798.859375 454.261719 806.898438 465.148438 806.898438 C 466.140625 806.898438 467.148438 806.835938 468.167969 806.703125 C 480.265625 805.039062 488.738281 793.90625 487.085938 781.804688 L 466.679688 632.183594 C 503.703125 613.816406 535.730469 604.554688 562.667969 604.554688 C 574.105469 604.554688 585.257812 606.261719 596.128906 609.710938 C 607.003906 613.167969 616.054688 616.917969 623.253906 620.980469 C 630.453125 625.046875 638.953125 628.816406 648.722656 632.246094 C 658.515625 635.695312 668.183594 637.421875 677.726562 637.421875 C 701.835938 637.421875 730.710938 628.335938 764.363281 610.179688 C 768.59375 607.988281 771.6875 605.828125 773.644531 603.714844 C 775.597656 601.601562 776.578125 598.59375 776.578125 594.683594 L 776.578125 415.523438 C 776.578125 411.464844 775.101562 407.933594 772.140625 404.953125 Z M 772.140625 404.953125 " fill-opacity="1" fill-rule="nonzero"/></g></svg>