<svg xmlns="http://www.w3.org/2000/svg" xmlns:xlink="http://www.w3.org/1999/xlink" width="1536" zoomAndPan="magnify" viewBox="0 0 1152 1151.999944" height="1536" preserveAspectRatio="xMidYMid meet" version="1.0"><defs><clipPath id="1d7ede1cb2"><path d="M 366 355.859375 L 786 355.859375 L 786 776 L 366 776 Z M 366 355.859375 " clip-rule="nonzero"/></clipPath></defs><rect x="-115.2" width="1382.4" fill="#ffffff" y="-115.199994" height="1382.399933" fill-opacity="1"/><rect x="-115.2" width="1382.4" fill="#ffffff" y="-115.199994" height="1382.399933" fill-opacity="1"/><path fill="#ffffff" d="M 576 368.25 C 579.230469 368.25 582.460938 368.328125 585.6875 368.488281 C 588.917969 368.644531 592.140625 368.882812 595.355469 369.199219 C 598.570312 369.515625 601.777344 369.910156 604.976562 370.386719 C 608.171875 370.859375 611.355469 371.414062 614.523438 372.042969 C 617.695312 372.675781 620.847656 373.382812 623.980469 374.167969 C 627.117188 374.953125 630.230469 375.8125 633.324219 376.753906 C 636.417969 377.691406 639.484375 378.703125 642.527344 379.792969 C 645.570312 380.882812 648.585938 382.042969 651.570312 383.28125 C 654.554688 384.519531 657.511719 385.828125 660.429688 387.207031 C 663.351562 388.589844 666.238281 390.042969 669.089844 391.566406 C 671.9375 393.089844 674.75 394.683594 677.523438 396.34375 C 680.292969 398.003906 683.023438 399.734375 685.710938 401.53125 C 688.398438 403.324219 691.039062 405.1875 693.636719 407.109375 C 696.230469 409.035156 698.777344 411.023438 701.277344 413.074219 C 703.777344 415.125 706.222656 417.234375 708.617188 419.40625 C 711.011719 421.574219 713.351562 423.804688 715.636719 426.089844 C 717.921875 428.375 720.148438 430.714844 722.320312 433.109375 C 724.492188 435.503906 726.601562 437.949219 728.652344 440.449219 C 730.703125 442.945312 732.6875 445.492188 734.613281 448.089844 C 736.539062 450.683594 738.398438 453.328125 740.195312 456.015625 C 741.992188 458.699219 743.71875 461.429688 745.378906 464.203125 C 747.042969 466.976562 748.636719 469.785156 750.160156 472.636719 C 751.683594 475.488281 753.132812 478.371094 754.515625 481.292969 C 755.898438 484.214844 757.207031 487.167969 758.445312 490.15625 C 759.679688 493.140625 760.84375 496.15625 761.933594 499.199219 C 763.019531 502.242188 764.035156 505.308594 764.972656 508.402344 C 765.910156 511.496094 766.773438 514.609375 767.558594 517.742188 C 768.34375 520.878906 769.050781 524.03125 769.683594 527.199219 C 770.3125 530.371094 770.863281 533.554688 771.339844 536.75 C 771.8125 539.945312 772.207031 543.152344 772.523438 546.371094 C 772.84375 549.585938 773.078125 552.808594 773.238281 556.035156 C 773.398438 559.265625 773.476562 562.496094 773.476562 565.726562 C 773.476562 568.957031 773.398438 572.1875 773.238281 575.414062 C 773.078125 578.644531 772.84375 581.867188 772.523438 585.082031 C 772.207031 588.296875 771.8125 591.503906 771.339844 594.703125 C 770.863281 597.898438 770.3125 601.082031 769.683594 604.253906 C 769.050781 607.421875 768.34375 610.574219 767.558594 613.710938 C 766.773438 616.84375 765.910156 619.957031 764.972656 623.050781 C 764.035156 626.144531 763.019531 629.210938 761.933594 632.253906 C 760.84375 635.296875 759.679688 638.3125 758.445312 641.296875 C 757.207031 644.285156 755.898438 647.238281 754.515625 650.160156 C 753.132812 653.082031 751.683594 655.964844 750.160156 658.816406 C 748.636719 661.667969 747.042969 664.476562 745.378906 667.25 C 743.71875 670.023438 741.992188 672.75 740.195312 675.4375 C 738.398438 678.125 736.539062 680.765625 734.613281 683.363281 C 732.6875 685.960938 730.703125 688.507812 728.652344 691.003906 C 726.601562 693.503906 724.492188 695.949219 722.320312 698.34375 C 720.148438 700.738281 717.921875 703.078125 715.636719 705.363281 C 713.351562 707.648438 711.011719 709.875 708.617188 712.046875 C 706.222656 714.21875 703.777344 716.328125 701.277344 718.378906 C 698.777344 720.429688 696.230469 722.417969 693.636719 724.339844 C 691.039062 726.265625 688.398438 728.128906 685.710938 729.921875 C 683.023438 731.71875 680.292969 733.445312 677.523438 735.109375 C 674.75 736.769531 671.9375 738.363281 669.089844 739.886719 C 666.238281 741.410156 663.351562 742.863281 660.429688 744.242188 C 657.511719 745.625 654.554688 746.933594 651.570312 748.171875 C 648.585938 749.40625 645.570312 750.570312 642.527344 751.660156 C 639.484375 752.75 636.417969 753.761719 633.324219 754.699219 C 630.230469 755.636719 627.117188 756.5 623.980469 757.285156 C 620.847656 758.070312 617.695312 758.777344 614.523438 759.410156 C 611.355469 760.039062 608.171875 760.59375 604.976562 761.066406 C 601.777344 761.539062 598.570312 761.9375 595.355469 762.253906 C 592.140625 762.570312 588.917969 762.808594 585.6875 762.964844 C 582.460938 763.125 579.230469 763.203125 576 763.203125 C 572.765625 763.203125 569.539062 763.125 566.308594 762.964844 C 563.082031 762.808594 559.859375 762.570312 556.644531 762.253906 C 553.425781 761.9375 550.21875 761.539062 547.023438 761.066406 C 543.828125 760.59375 540.644531 760.039062 537.472656 759.410156 C 534.304688 758.777344 531.152344 758.070312 528.015625 757.285156 C 524.882812 756.5 521.765625 755.636719 518.675781 754.699219 C 515.582031 753.761719 512.515625 752.75 509.472656 751.660156 C 506.429688 750.570312 503.414062 749.40625 500.425781 748.171875 C 497.441406 746.933594 494.488281 745.625 491.566406 744.242188 C 488.644531 742.863281 485.757812 741.410156 482.910156 739.886719 C 480.058594 738.363281 477.246094 736.769531 474.476562 735.109375 C 471.703125 733.445312 468.972656 731.71875 466.285156 729.921875 C 463.597656 728.128906 460.957031 726.265625 458.363281 724.339844 C 455.765625 722.417969 453.21875 720.429688 450.722656 718.378906 C 448.222656 716.328125 445.777344 714.21875 443.382812 712.046875 C 440.988281 709.875 438.648438 707.648438 436.363281 705.363281 C 434.078125 703.078125 431.847656 700.738281 429.679688 698.34375 C 427.507812 695.949219 425.398438 693.503906 423.347656 691.003906 C 421.296875 688.507812 419.308594 685.960938 417.382812 683.363281 C 415.457031 680.765625 413.597656 678.125 411.800781 675.4375 C 410.007812 672.75 408.277344 670.023438 406.617188 667.25 C 404.957031 664.476562 403.363281 661.667969 401.839844 658.816406 C 400.316406 655.964844 398.863281 653.082031 397.480469 650.160156 C 396.101562 647.238281 394.789062 644.285156 393.554688 641.296875 C 392.316406 638.3125 391.152344 635.296875 390.066406 632.253906 C 388.976562 629.210938 387.964844 626.144531 387.023438 623.050781 C 386.085938 619.957031 385.226562 616.84375 384.441406 613.710938 C 383.65625 610.574219 382.945312 607.421875 382.316406 604.253906 C 381.6875 601.082031 381.132812 597.898438 380.660156 594.703125 C 380.183594 591.503906 379.789062 588.296875 379.472656 585.082031 C 379.15625 581.867188 378.917969 578.644531 378.757812 575.414062 C 378.601562 572.1875 378.523438 568.957031 378.523438 565.726562 C 378.523438 562.496094 378.601562 559.265625 378.757812 556.035156 C 378.917969 552.808594 379.15625 549.585938 379.472656 546.371094 C 379.789062 543.152344 380.183594 539.945312 380.660156 536.75 C 381.132812 533.554688 381.6875 530.371094 382.316406 527.199219 C 382.945312 524.03125 383.65625 520.878906 384.441406 517.742188 C 385.226562 514.609375 386.085938 511.496094 387.023438 508.402344 C 387.964844 505.308594 388.976562 502.242188 390.066406 499.199219 C 391.152344 496.15625 392.316406 493.140625 393.554688 490.15625 C 394.789062 487.167969 396.101562 484.214844 397.480469 481.292969 C 398.863281 478.371094 400.316406 475.488281 401.839844 472.636719 C 403.363281 469.785156 404.957031 466.976562 406.617188 464.203125 C 408.277344 461.429688 410.007812 458.699219 411.800781 456.015625 C 413.597656 453.328125 415.457031 450.683594 417.382812 448.089844 C 419.308594 445.492188 421.296875 442.945312 423.347656 440.449219 C 425.398438 437.949219 427.507812 435.503906 429.679688 433.109375 C 431.847656 430.714844 434.078125 428.375 436.363281 426.089844 C 438.648438 423.804688 440.988281 421.574219 443.382812 419.40625 C 445.777344 417.234375 448.222656 415.125 450.722656 413.074219 C 453.21875 411.023438 455.765625 409.035156 458.363281 407.109375 C 460.957031 405.1875 463.597656 403.324219 466.285156 401.53125 C 468.972656 399.734375 471.703125 398.003906 474.476562 396.34375 C 477.246094 394.683594 480.058594 393.089844 482.910156 391.566406 C 485.757812 390.042969 488.644531 388.589844 491.566406 387.207031 C 494.488281 385.828125 497.441406 384.519531 500.425781 383.28125 C 503.414062 382.042969 506.429688 380.882812 509.472656 379.792969 C 512.515625 378.703125 515.582031 377.691406 518.675781 376.753906 C 521.765625 375.8125 524.882812 374.953125 528.015625 374.167969 C 531.152344 373.382812 534.304688 372.675781 537.472656 372.042969 C 540.644531 371.414062 543.828125 370.859375 547.023438 370.386719 C 550.21875 369.914062 553.425781 369.515625 556.644531 369.199219 C 559.859375 368.882812 563.082031 368.644531 566.308594 368.488281 C 569.539062 368.328125 572.765625 368.25 576 368.25 Z M 576 368.25 " fill-opacity="1" fill-rule="nonzero"/><path fill="#ff3131" d="M 641.824219 504.015625 C 641.824219 490.378906 652.875 479.332031 666.507812 479.332031 C 680.136719 479.332031 691.195312 490.386719 691.195312 504.015625 L 691.195312 627.4375 C 691.195312 641.074219 680.144531 652.121094 666.507812 652.121094 C 652.882812 652.121094 641.824219 641.0625 641.824219 627.4375 Z M 641.824219 504.015625 " fill-opacity="1" fill-rule="nonzero"/><path fill="#ff3131" d="M 551.316406 504.015625 C 551.316406 490.378906 562.363281 479.332031 576 479.332031 C 589.625 479.332031 600.683594 490.386719 600.683594 504.015625 L 600.683594 627.4375 C 600.683594 641.074219 589.632812 652.121094 576 652.121094 C 562.375 652.121094 551.316406 641.0625 551.316406 627.4375 Z M 551.316406 504.015625 " fill-opacity="1" fill-rule="nonzero"/><path fill="#ff3131" d="M 460.804688 504.015625 C 460.804688 490.378906 471.855469 479.332031 485.488281 479.332031 C 499.113281 479.332031 510.171875 490.386719 510.171875 504.015625 L 510.171875 627.4375 C 510.171875 641.074219 499.121094 652.121094 485.488281 652.121094 C 471.863281 652.121094 460.804688 641.0625 460.804688 627.4375 Z M 460.804688 504.015625 " fill-opacity="1" fill-rule="nonzero"/><g clip-path="url(#1d7ede1cb2)"><path fill="#ffffff" d="M 724.363281 714.089844 C 642.367188 796.085938 509.640625 796.097656 427.632812 714.089844 C 345.636719 632.09375 345.625 499.367188 427.632812 417.359375 C 467.261719 377.730469 519.953125 355.90625 576 355.90625 C 632.042969 355.90625 684.734375 377.730469 724.363281 417.363281 C 806.359375 499.359375 806.371094 632.082031 724.363281 714.089844 Z M 390.863281 565.726562 C 390.863281 667.808594 473.914062 750.863281 576 750.863281 C 678.082031 750.863281 761.132812 667.808594 761.132812 565.726562 C 761.132812 463.640625 678.082031 380.589844 576 380.589844 C 473.914062 380.589844 390.863281 463.644531 390.863281 565.726562 Z M 390.863281 565.726562 " fill-opacity="1" fill-rule="nonzero"/></g></svg>