<svg xmlns="http://www.w3.org/2000/svg" xmlns:xlink="http://www.w3.org/1999/xlink" width="1536" zoomAndPan="magnify" viewBox="0 0 1152 1151.999944" height="1536" preserveAspectRatio="xMidYMid meet" version="1.0"><rect x="-115.2" width="1382.4" fill="#ffffff" y="-115.199994" height="1382.399933" fill-opacity="1"/><rect x="-115.2" width="1382.4" fill="#ffffff" y="-115.199994" height="1382.399933" fill-opacity="1"/><path fill="#ff3131" d="M 720.320312 721.5625 C 718.902344 734.457031 705.488281 742.992188 685.09375 755.949219 C 649.695312 778.453125 614.339844 780.839844 599.253906 781.742188 C 552.53125 784.515625 518.140625 770.136719 500.21875 762.398438 C 469.613281 749.179688 454.308594 742.582031 451.796875 730.160156 C 445.691406 699.984375 515.003906 645.03125 587.152344 644.191406 C 655.027344 643.394531 723.757812 690.183594 720.320312 721.5625 Z M 720.320312 721.5625 " fill-opacity="1" fill-rule="nonzero"/><path fill="#ff3131" d="M 777.402344 578.640625 C 776.820312 659 726.164062 733.253906 649.976562 760.550781 C 573.785156 787.84375 485.96875 763.925781 434.019531 700.910156 C 382.847656 638.859375 376.722656 548.207031 417.902344 479.390625 C 459.445312 409.949219 542.773438 372.636719 622.25 388.972656 C 711.9375 407.390625 776.734375 487.363281 777.378906 578.640625 C 777.488281 592.460938 798.980469 592.503906 798.875 578.640625 C 798.226562 489.210938 742.242188 408.378906 658.355469 376.980469 C 574.367188 345.558594 475.84375 372.035156 418.804688 441.15625 C 361.484375 510.636719 352.910156 611.113281 399.332031 688.722656 C 445.542969 765.964844 536.839844 806.328125 625.109375 789.585938 C 725.371094 770.566406 798.140625 679.890625 798.875 578.640625 C 798.980469 564.800781 777.488281 564.800781 777.378906 578.640625 Z M 777.402344 578.640625 " fill-opacity="1" fill-rule="nonzero"/><path fill="#ff3131" d="M 671.359375 527.167969 C 671.359375 528.625 671.324219 530.085938 671.253906 531.546875 C 671.179688 533.003906 671.074219 534.460938 670.929688 535.914062 C 670.785156 537.367188 670.609375 538.816406 670.394531 540.261719 C 670.179688 541.707031 669.929688 543.148438 669.644531 544.578125 C 669.359375 546.011719 669.039062 547.4375 668.683594 548.855469 C 668.328125 550.269531 667.941406 551.679688 667.515625 553.074219 C 667.09375 554.472656 666.632812 555.859375 666.140625 557.234375 C 665.648438 558.609375 665.125 559.972656 664.566406 561.324219 C 664.007812 562.671875 663.414062 564.007812 662.789062 565.328125 C 662.164062 566.648438 661.507812 567.953125 660.820312 569.242188 C 660.132812 570.53125 659.410156 571.800781 658.660156 573.054688 C 657.910156 574.304688 657.128906 575.539062 656.316406 576.753906 C 655.503906 577.96875 654.664062 579.164062 653.792969 580.335938 C 652.925781 581.511719 652.027344 582.660156 651.097656 583.789062 C 650.171875 584.917969 649.21875 586.023438 648.238281 587.109375 C 647.257812 588.191406 646.25 589.246094 645.21875 590.28125 C 644.183594 591.3125 643.125 592.320312 642.042969 593.300781 C 640.960938 594.28125 639.855469 595.234375 638.726562 596.164062 C 637.597656 597.089844 636.445312 597.988281 635.273438 598.859375 C 634.101562 599.726562 632.90625 600.570312 631.691406 601.378906 C 630.476562 602.191406 629.242188 602.972656 627.988281 603.722656 C 626.738281 604.476562 625.464844 605.195312 624.179688 605.882812 C 622.890625 606.574219 621.585938 607.230469 620.265625 607.855469 C 618.945312 608.476562 617.609375 609.070312 616.261719 609.628906 C 614.910156 610.1875 613.546875 610.714844 612.171875 611.207031 C 610.796875 611.699219 609.410156 612.15625 608.011719 612.578125 C 606.613281 613.003906 605.207031 613.394531 603.789062 613.75 C 602.375 614.101562 600.949219 614.421875 599.515625 614.707031 C 598.082031 614.992188 596.644531 615.242188 595.199219 615.457031 C 593.753906 615.671875 592.304688 615.851562 590.851562 615.992188 C 589.398438 616.136719 587.941406 616.242188 586.480469 616.316406 C 585.023438 616.386719 583.5625 616.421875 582.101562 616.421875 C 580.640625 616.421875 579.183594 616.386719 577.722656 616.316406 C 576.265625 616.242188 574.808594 616.136719 573.355469 615.992188 C 571.898438 615.851562 570.449219 615.671875 569.007812 615.457031 C 567.5625 615.242188 566.121094 614.992188 564.6875 614.707031 C 563.257812 614.421875 561.832031 614.101562 560.414062 613.75 C 558.996094 613.394531 557.589844 613.003906 556.191406 612.578125 C 554.792969 612.15625 553.40625 611.699219 552.03125 611.207031 C 550.65625 610.714844 549.296875 610.1875 547.945312 609.628906 C 546.597656 609.070312 545.261719 608.476562 543.941406 607.855469 C 542.621094 607.230469 541.316406 606.574219 540.027344 605.882812 C 538.738281 605.195312 537.46875 604.476562 536.214844 603.722656 C 534.960938 602.972656 533.730469 602.191406 532.515625 601.378906 C 531.300781 600.570312 530.105469 599.726562 528.933594 598.859375 C 527.757812 597.988281 526.609375 597.089844 525.476562 596.164062 C 524.347656 595.234375 523.242188 594.28125 522.160156 593.300781 C 521.078125 592.320312 520.019531 591.3125 518.988281 590.28125 C 517.957031 589.246094 516.949219 588.191406 515.96875 587.109375 C 514.988281 586.023438 514.03125 584.917969 513.105469 583.789062 C 512.179688 582.660156 511.28125 581.511719 510.410156 580.335938 C 509.539062 579.164062 508.699219 577.96875 507.886719 576.753906 C 507.078125 575.539062 506.296875 574.304688 505.542969 573.054688 C 504.792969 571.800781 504.074219 570.53125 503.386719 569.242188 C 502.695312 567.953125 502.039062 566.648438 501.414062 565.328125 C 500.789062 564.007812 500.199219 562.671875 499.640625 561.324219 C 499.082031 559.972656 498.554688 558.609375 498.0625 557.234375 C 497.570312 555.859375 497.113281 554.472656 496.6875 553.074219 C 496.265625 551.679688 495.875 550.269531 495.519531 548.855469 C 495.164062 547.4375 494.84375 546.011719 494.558594 544.578125 C 494.277344 543.148438 494.027344 541.707031 493.8125 540.261719 C 493.597656 538.816406 493.417969 537.367188 493.273438 535.914062 C 493.132812 534.460938 493.023438 533.003906 492.953125 531.546875 C 492.882812 530.085938 492.84375 528.625 492.84375 527.167969 C 492.84375 525.707031 492.882812 524.246094 492.953125 522.785156 C 493.023438 521.328125 493.132812 519.871094 493.273438 518.417969 C 493.417969 516.964844 493.597656 515.515625 493.8125 514.070312 C 494.027344 512.625 494.277344 511.1875 494.558594 509.753906 C 494.84375 508.320312 495.164062 506.894531 495.519531 505.476562 C 495.875 504.0625 496.265625 502.652344 496.6875 501.257812 C 497.113281 499.859375 497.570312 498.472656 498.0625 497.097656 C 498.554688 495.722656 499.082031 494.359375 499.640625 493.007812 C 500.199219 491.660156 500.789062 490.324219 501.414062 489.003906 C 502.039062 487.683594 502.695312 486.378906 503.386719 485.089844 C 504.074219 483.800781 504.792969 482.53125 505.542969 481.277344 C 506.296875 480.027344 507.078125 478.792969 507.886719 477.578125 C 508.699219 476.363281 509.539062 475.167969 510.410156 473.996094 C 511.28125 472.824219 512.179688 471.671875 513.105469 470.542969 C 514.03125 469.414062 514.988281 468.308594 515.96875 467.226562 C 516.949219 466.140625 517.957031 465.085938 518.988281 464.050781 C 520.019531 463.019531 521.078125 462.011719 522.160156 461.03125 C 523.242188 460.050781 524.347656 459.097656 525.476562 458.167969 C 526.609375 457.242188 527.757812 456.34375 528.933594 455.472656 C 530.105469 454.605469 531.300781 453.761719 532.515625 452.953125 C 533.730469 452.140625 534.960938 451.359375 536.214844 450.609375 C 537.46875 449.855469 538.738281 449.136719 540.027344 448.449219 C 541.316406 447.761719 542.621094 447.101562 543.941406 446.480469 C 545.261719 445.855469 546.597656 445.261719 547.945312 444.703125 C 549.296875 444.144531 550.65625 443.617188 552.03125 443.125 C 553.40625 442.632812 554.792969 442.175781 556.191406 441.753906 C 557.589844 441.328125 558.996094 440.9375 560.414062 440.582031 C 561.832031 440.230469 563.257812 439.910156 564.6875 439.625 C 566.121094 439.339844 567.5625 439.089844 569.007812 438.875 C 570.449219 438.660156 571.898438 438.480469 573.355469 438.339844 C 574.808594 438.195312 576.265625 438.089844 577.722656 438.015625 C 579.183594 437.945312 580.640625 437.910156 582.101562 437.910156 C 583.5625 437.910156 585.023438 437.945312 586.480469 438.015625 C 587.941406 438.089844 589.398438 438.195312 590.851562 438.339844 C 592.304688 438.480469 593.753906 438.660156 595.199219 438.875 C 596.644531 439.089844 598.082031 439.339844 599.515625 439.625 C 600.949219 439.910156 602.375 440.230469 603.789062 440.582031 C 605.207031 440.9375 606.613281 441.328125 608.011719 441.753906 C 609.410156 442.175781 610.796875 442.632812 612.171875 443.125 C 613.546875 443.617188 614.910156 444.144531 616.261719 444.703125 C 617.609375 445.261719 618.945312 445.855469 620.265625 446.480469 C 621.585938 447.101562 622.890625 447.761719 624.179688 448.449219 C 625.464844 449.136719 626.738281 449.855469 627.988281 450.609375 C 629.242188 451.359375 630.476562 452.140625 631.691406 452.953125 C 632.90625 453.761719 634.101562 454.605469 635.273438 455.472656 C 636.445312 456.34375 637.597656 457.242188 638.726562 458.167969 C 639.855469 459.097656 640.960938 460.050781 642.042969 461.03125 C 643.125 462.011719 644.183594 463.019531 645.21875 464.050781 C 646.25 465.085938 647.257812 466.140625 648.238281 467.226562 C 649.21875 468.308594 650.171875 469.414062 651.097656 470.542969 C 652.027344 471.671875 652.925781 472.824219 653.792969 473.996094 C 654.664062 475.167969 655.503906 476.363281 656.316406 477.578125 C 657.128906 478.792969 657.910156 480.027344 658.660156 481.277344 C 659.410156 482.53125 660.132812 483.800781 660.820312 485.089844 C 661.507812 486.378906 662.164062 487.683594 662.789062 489.003906 C 663.414062 490.324219 664.007812 491.660156 664.566406 493.007812 C 665.125 494.359375 665.648438 495.722656 666.140625 497.097656 C 666.632812 498.472656 667.09375 499.859375 667.515625 501.257812 C 667.941406 502.652344 668.328125 504.0625 668.683594 505.476562 C 669.039062 506.894531 669.359375 508.320312 669.644531 509.753906 C 669.929688 511.1875 670.179688 512.625 670.394531 514.070312 C 670.609375 515.515625 670.785156 516.964844 670.929688 518.417969 C 671.074219 519.871094 671.179688 521.328125 671.253906 522.785156 C 671.324219 524.246094 671.359375 525.707031 671.359375 527.167969 Z M 671.359375 527.167969 " fill-opacity="1" fill-rule="nonzero"/></svg>