<svg xmlns="http://www.w3.org/2000/svg" xmlns:xlink="http://www.w3.org/1999/xlink" width="1536" zoomAndPan="magnify" viewBox="0 0 1152 1151.999944" height="1536" preserveAspectRatio="xMidYMid meet" version="1.0"><defs><clipPath id="629a38c025"><path d="M 288 288 L 864 288 L 864 864 L 288 864 Z M 288 288 " clip-rule="nonzero"/></clipPath><clipPath id="95184b26e6"><path d="M 576 288 C 735.058594 288 864 416.941406 864 576 C 864 735.058594 735.058594 864 576 864 C 416.941406 864 288 735.058594 288 576 C 288 416.941406 416.941406 288 576 288 L 576 374.398438 C 464.660156 374.398438 374.398438 464.660156 374.398438 576 C 374.398438 687.339844 464.660156 777.601562 576 777.601562 C 687.339844 777.601562 777.601562 687.339844 777.601562 576 C 777.601562 464.660156 687.339844 374.398438 576 374.398438 Z M 576 288 " clip-rule="nonzero"/></clipPath><clipPath id="cef8aa0e0e"><path d="M 342 291 L 864 291 L 864 864 L 342 864 Z M 342 291 " clip-rule="nonzero"/></clipPath><clipPath id="30f8d70de1"><path d="M 626.824219 292.519531 C 752.601562 315.070312 848.480469 417.804688 862.308594 544.835938 C 876.136719 671.871094 804.605469 792.824219 686.621094 841.90625 C 568.640625 890.988281 432.425781 856.460938 352.070312 757.105469 C 342.363281 745.105469 339.796875 728.835938 345.335938 714.433594 C 350.878906 700.027344 363.683594 689.671875 378.925781 687.265625 C 394.171875 684.863281 409.542969 690.773438 419.25 702.773438 C 475.496094 772.324219 570.847656 796.492188 653.433594 762.136719 C 736.023438 727.777344 786.09375 643.109375 776.417969 554.1875 C 766.738281 465.261719 699.621094 393.347656 611.578125 377.5625 C 596.386719 374.839844 583.800781 364.21875 578.5625 349.699219 C 573.324219 335.183594 576.230469 318.972656 586.1875 307.179688 C 596.140625 295.382812 611.632812 289.796875 626.824219 292.519531 Z M 626.824219 292.519531 " clip-rule="nonzero"/></clipPath></defs><rect x="-115.2" width="1382.4" fill="#ffffff" y="-115.199994" height="1382.399933" fill-opacity="1"/><rect x="-115.2" width="1382.4" fill="#ffffff" y="-115.199994" height="1382.399933" fill-opacity="1"/><g clip-path="url(#629a38c025)"><g clip-path="url(#95184b26e6)"><path fill="#fccab4" d="M 288 288 L 864 288 L 864 864 L 288 864 Z M 288 288 " fill-opacity="1" fill-rule="nonzero"/></g></g><g clip-path="url(#cef8aa0e0e)"><g clip-path="url(#30f8d70de1)"><path fill="#ff3131" d="M 288 288 L 864 288 L 864 864 L 288 864 Z M 288 288 " fill-opacity="1" fill-rule="nonzero"/></g></g></svg>