<svg xmlns="http://www.w3.org/2000/svg" xmlns:xlink="http://www.w3.org/1999/xlink" width="1536" zoomAndPan="magnify" viewBox="0 0 1152 1151.999944" height="1536" preserveAspectRatio="xMidYMid meet" version="1.0"><defs><filter x="0%" y="0%" width="100%" height="100%" id="4e931f03ab"><feColorMatrix values="0 0 0 0 1 0 0 0 0 1 0 0 0 0 1 0 0 0 1 0" color-interpolation-filters="sRGB"/></filter><mask id="adbd28658a"><g filter="url(#4e931f03ab)"><rect x="-115.2" width="1382.4" fill="#000000" y="-115.199994" height="1382.399933" fill-opacity="0.6"/></g></mask><clipPath id="5c3e61971a"><path d="M 0 0.0390625 L 250 0.0390625 L 250 240 L 0 240 Z M 0 0.0390625 " clip-rule="nonzero"/></clipPath><clipPath id="1b0a8532c0"><rect x="0" width="251" y="0" height="241"/></clipPath><mask id="791d3de9a5"><g filter="url(#4e931f03ab)"><rect x="-115.2" width="1382.4" fill="#000000" y="-115.199994" height="1382.399933" fill-opacity="0.5"/></g></mask><clipPath id="e41f0b9ad3"><path d="M 2 0.0390625 L 251 0.0390625 L 251 240 L 2 240 Z M 2 0.0390625 " clip-rule="nonzero"/></clipPath><clipPath id="8bb2c3c7c7"><rect x="0" width="251" y="0" height="241"/></clipPath><mask id="a1e711a256"><g filter="url(#4e931f03ab)"><rect x="-115.2" width="1382.4" fill="#000000" y="-115.199994" height="1382.399933" fill-opacity="0.1"/></g></mask><clipPath id="4f787433bd"><path d="M 0 1 L 247.679688 1 L 247.679688 237 L 0 237 Z M 0 1 " clip-rule="nonzero"/></clipPath><clipPath id="4d99d27957"><rect x="0" width="248" y="0" height="238"/></clipPath><mask id="2b3e566ce0"><g filter="url(#4e931f03ab)"><rect x="-115.2" width="1382.4" fill="#000000" y="-115.199994" height="1382.399933" fill-opacity="0.3"/></g></mask><clipPath id="bf3912ecfc"><rect x="0" width="248" y="0" height="238"/></clipPath><mask id="e588dbcf90"><g filter="url(#4e931f03ab)"><rect x="-115.2" width="1382.4" fill="#000000" y="-115.199994" height="1382.399933" fill-opacity="0.4"/></g></mask><clipPath id="c57d16f489"><path d="M 1 0.800781 L 204 0.800781 L 204 287.839844 L 1 287.839844 Z M 1 0.800781 " clip-rule="nonzero"/></clipPath><clipPath id="5085888c59"><rect x="0" width="204" y="0" height="288"/></clipPath></defs><rect x="-115.2" width="1382.4" fill="#ffffff" y="-115.199994" height="1382.399933" fill-opacity="1"/><rect x="-115.2" width="1382.4" fill="#ffffff" y="-115.199994" height="1382.399933" fill-opacity="1"/><path fill="#ff0000" d="M 576.324219 289.589844 C 418.144531 289.589844 289.914062 417.820312 289.914062 576 C 289.914062 734.179688 418.144531 862.410156 576.324219 862.410156 C 734.503906 862.410156 862.734375 734.179688 862.734375 576 C 862.734375 417.820312 734.503906 289.589844 576.324219 289.589844 Z M 576.324219 675.210938 C 521.53125 675.210938 477.117188 630.792969 477.117188 576 C 477.117188 521.207031 521.535156 476.789062 576.324219 476.789062 C 631.113281 476.789062 675.53125 521.207031 675.53125 576 C 675.53125 630.792969 631.117188 675.210938 576.324219 675.210938 Z M 576.324219 675.210938 " fill-opacity="1" fill-rule="nonzero"/><g mask="url(#adbd28658a)"><g transform="matrix(1, 0, 0, 1, 576, 623)"><g clip-path="url(#1b0a8532c0)"><g clip-path="url(#5c3e61971a)"><path fill="#ffffff" d="M 0.324219 52.210938 C 0.214844 52.210938 0.109375 52.199219 0 52.199219 L 0 239.40625 C 0.109375 239.40625 0.214844 239.410156 0.324219 239.410156 C 107.070312 239.410156 200.167969 181.007812 249.425781 94.414062 L 87.269531 0.792969 C 70.386719 31.441406 37.785156 52.210938 0.324219 52.210938 Z M 0.324219 52.210938 " fill-opacity="1" fill-rule="nonzero"/></g></g></g></g><g mask="url(#791d3de9a5)"><g transform="matrix(1, 0, 0, 1, 325, 623)"><g clip-path="url(#8bb2c3c7c7)"><g clip-path="url(#e41f0b9ad3)"><path fill="#ffffff" d="M 164.21875 0.511719 L 2.0625 94.132812 C 51.234375 180.789062 144.273438 239.285156 251 239.40625 L 251 52.199219 C 213.558594 52.082031 181.003906 31.222656 164.21875 0.511719 Z M 164.21875 0.511719 " fill-opacity="1" fill-rule="nonzero"/></g></g></g></g><g mask="url(#a1e711a256)"><g transform="matrix(1, 0, 0, 1, 576, 288)"><g clip-path="url(#4d99d27957)"><g clip-path="url(#4f787433bd)"><path fill="#ffffff" d="M 0.324219 188.789062 C 36.183594 188.789062 67.589844 207.816406 85.019531 236.320312 L 247.171875 142.703125 C 197.359375 58.257812 105.464844 1.589844 0.324219 1.589844 C 0.214844 1.589844 0.105469 1.59375 0 1.59375 L 0 188.800781 C 0.109375 188.800781 0.214844 188.789062 0.324219 188.789062 Z M 0.324219 188.789062 " fill-opacity="1" fill-rule="nonzero"/></g></g></g></g><g mask="url(#2b3e566ce0)"><g transform="matrix(1, 0, 0, 1, 328, 288)"><g clip-path="url(#bf3912ecfc)"><path fill="#ffffff" d="M 248 188.800781 L 248 1.59375 C 142.878906 1.710938 51.035156 58.46875 1.3125 142.984375 L 163.453125 236.597656 C 180.796875 208.023438 212.164062 188.914062 248 188.800781 Z M 248 188.800781 " fill-opacity="1" fill-rule="nonzero"/></g></g></g><g mask="url(#e588dbcf90)"><g transform="matrix(1, 0, 0, 1, 288, 430)"><g clip-path="url(#5085888c59)"><g clip-path="url(#c57d16f489)"><path fill="#ffffff" d="M 189.113281 146 C 189.113281 127.183594 194.355469 109.585938 203.453125 94.59375 L 41.3125 0.984375 C 16.285156 43.519531 1.914062 93.078125 1.914062 146 C 1.914062 197.316406 15.425781 245.476562 39.0625 287.132812 L 201.214844 193.511719 C 193.503906 179.402344 189.113281 163.214844 189.113281 146 Z M 189.113281 146 " fill-opacity="1" fill-rule="nonzero"/></g></g></g></g></svg>